<svg width="45" height="45" viewBox="0 0 45 45" fill="none" xmlns="http://www.w3.org/2000/svg">
<g clip-path="url(#clip0_1041_4123)">
<path d="M19.6861 3.75C22.6786 3.7498 25.6106 4.59207 28.1467 6.18043C30.6828 7.76879 32.7205 10.0391 34.0266 12.7314C35.3326 15.4238 35.8543 18.4295 35.532 21.4045C35.2096 24.3795 34.0561 27.2037 32.2036 29.5538L39.0511 36.4012C39.3927 36.7549 39.5817 37.2285 39.5774 37.7201C39.5731 38.2117 39.3759 38.682 39.0283 39.0297C38.6807 39.3773 38.2104 39.5745 37.7188 39.5788C37.2271 39.583 36.7535 39.394 36.3999 39.0525L29.5524 32.205C27.5564 33.7781 25.2131 34.851 22.7181 35.3342C20.223 35.8175 17.6486 35.697 15.2096 34.983C12.7706 34.269 10.5377 32.982 8.69721 31.2295C6.85673 29.477 5.46203 27.3097 4.62948 24.9086C3.79692 22.5074 3.55066 19.942 3.91122 17.4263C4.27179 14.9107 5.22873 12.5177 6.70221 10.447C8.17569 8.37641 10.123 6.68817 12.3816 5.52318C14.6403 4.35818 17.1448 3.75022 19.6861 3.75ZM19.6861 7.5C16.4538 7.5 13.3539 8.78404 11.0683 11.0696C8.78268 13.3552 7.49864 16.4552 7.49864 19.6875C7.49864 22.9198 8.78268 26.0198 11.0683 28.3054C13.3539 30.591 16.4538 31.875 19.6861 31.875C22.9185 31.875 26.0184 30.591 28.304 28.3054C30.5896 26.0198 31.8736 22.9198 31.8736 19.6875C31.8736 16.4552 30.5896 13.3552 28.304 11.0696C26.0184 8.78404 22.9185 7.5 19.6861 7.5ZM19.6861 9.375C22.4212 9.375 25.0442 10.4615 26.9782 12.3955C28.9122 14.3294 29.9986 16.9525 29.9986 19.6875C29.9986 22.4225 28.9122 25.0456 26.9782 26.9795C25.0442 28.9135 22.4212 30 19.6861 30C16.9511 30 14.3281 28.9135 12.3941 26.9795C10.4601 25.0456 9.37364 22.4225 9.37364 19.6875C9.37364 16.9525 10.4601 14.3294 12.3941 12.3955C14.3281 10.4615 16.9511 9.375 19.6861 9.375Z" fill="black" fill-opacity="0.3"/>
</g>
<defs>
<clipPath id="clip0_1041_4123">
<rect width="45" height="45" fill="white"/>
</clipPath>
</defs>
</svg>
