<svg width="1169" height="731" fill="none" xmlns="http://www.w3.org/2000/svg"><rect x="1" y="-1" width="498" height="498" rx="249" transform="matrix(1 0 0 -1 119 509)" fill="#EEECE8" stroke="#A0A0A0" stroke-width="2" stroke-dasharray="14 14"/><rect x="1" y="-1" width="448" height="448" rx="224" transform="matrix(1 0 0 -1 219 529)" fill="#EEECE8" stroke="#A0A0A0" stroke-width="2" stroke-dasharray="14 14"/><rect x="1" y="-1" width="398" height="398" rx="199" transform="matrix(1 0 0 -1 319 549)" fill="#EEECE8" stroke="#A0A0A0" stroke-width="2" stroke-dasharray="14 14"/><rect x="1" y="-1" width="353" height="353" rx="176.5" transform="matrix(1 0 0 -1 414 569)" fill="#EEECE8" stroke="#A0A0A0" stroke-width="2" stroke-dasharray="14 14"/><rect x="1" y="-1" width="313" height="313" rx="156.5" transform="matrix(1 0 0 -1 504 589)" fill="#EEECE8" stroke="#A0A0A0" stroke-width="2" stroke-dasharray="14 14"/><rect x="1" y="-1" width="298" height="298" rx="149" transform="matrix(1 0 0 -1 569 609)" stroke="#A0A0A0" stroke-width="2"/><rect x="1" y="-1" width="253" height="253" rx="126.5" transform="matrix(1 0 0 -1 664 629)" fill="#EEECE8" stroke="#A0A0A0" stroke-width="2" stroke-dasharray="14 14"/><rect x="1" y="-1" width="223" height="223" rx="111.5" transform="matrix(1 0 0 -1 744 649)" fill="#EEECE8" stroke="#A0A0A0" stroke-width="2" stroke-dasharray="14 14"/><rect x="1" y="-1" width="198" height="198" rx="99" transform="matrix(1 0 0 -1 819 669)" fill="#EEECE8" stroke="#A0A0A0" stroke-width="2" stroke-dasharray="14 14"/><rect x="1" y="-1" width="158" height="158" rx="79" transform="matrix(1 0 0 -1 909 689)" fill="#EEECE8" stroke="#A0A0A0" stroke-width="2" stroke-dasharray="14 14"/><rect x="1" y="-1" width="108" height="108" rx="54" transform="matrix(1 0 0 -1 1009 709)" fill="#EEECE8" stroke="#A0A0A0" stroke-width="2" stroke-dasharray="14 14"/><rect x="1" y="-1" width="51" height="51" rx="25.5" transform="matrix(1 0 0 -1 1116 729)" fill="#EEECE8" stroke="#A0A0A0" stroke-width="2" stroke-dasharray="14 14"/><path d="M28.14 24.15a7.63 7.63 0 01-2.175-.316c-.7-.22-1.29-.52-1.77-.9l.825-1.515c.38.31.84.56 1.38.75a5.2 5.2 0 001.71.285c.69 0 1.23-.145 1.62-.434.4-.29.6-.68.6-1.17 0-.33-.085-.62-.255-.87-.16-.25-.45-.44-.87-.57-.41-.13-.975-.195-1.695-.195h-2.535l.54-5.716h6.165v1.635h-5.445l1.02-.93-.405 4.276-1.02-.916h2.115c1.04 0 1.875.14 2.505.42.64.27 1.105.65 1.395 1.14.3.48.45 1.03.45 1.65 0 .61-.15 1.17-.45 1.68-.3.51-.76.92-1.38 1.23-.61.31-1.385.465-2.325.465zm9.66 0c-.83 0-1.58-.21-2.25-.63-.66-.42-1.18-1.03-1.56-1.83-.38-.81-.57-1.79-.57-2.94s.19-2.125.57-2.925c.38-.81.9-1.425 1.56-1.845a4.15 4.15 0 012.25-.63c.84 0 1.59.21 2.25.63.66.42 1.18 1.034 1.56 1.845.39.8.585 1.774.585 2.925 0 1.15-.195 2.13-.585 2.94-.38.8-.9 1.41-1.56 1.83-.66.42-1.41.63-2.25.63zm0-1.695c.49 0 .915-.13 1.275-.39.36-.27.64-.68.84-1.23.21-.55.315-1.245.315-2.085 0-.85-.105-1.546-.315-2.085-.2-.55-.48-.955-.84-1.215a2.065 2.065 0 00-1.275-.405c-.47 0-.89.135-1.26.405-.36.26-.645.665-.855 1.215-.2.54-.3 1.235-.3 2.085 0 .84.1 1.535.3 2.084.21.55.495.96.855 1.23.37.26.79.39 1.26.39zm10.093 1.695c-.83 0-1.58-.21-2.25-.63-.66-.42-1.18-1.03-1.56-1.83-.38-.81-.57-1.79-.57-2.94s.19-2.125.57-2.925c.38-.81.9-1.425 1.56-1.845a4.15 4.15 0 012.25-.63c.84 0 1.59.21 2.25.63.66.42 1.18 1.034 1.56 1.845.39.8.584 1.774.584 2.925 0 1.15-.194 2.13-.584 2.94-.38.8-.9 1.41-1.56 1.83-.66.42-1.41.63-2.25.63zm0-1.695c.49 0 .914-.13 1.274-.39.36-.27.64-.68.84-1.23.21-.55.316-1.245.316-2.085 0-.85-.105-1.546-.316-2.085-.2-.55-.48-.955-.84-1.215a2.065 2.065 0 00-1.275-.405c-.47 0-.89.135-1.26.405-.36.26-.645.665-.854 1.215-.2.54-.3 1.235-.3 2.085 0 .84.1 1.535.3 2.084.21.55.495.96.855 1.23.37.26.79.39 1.26.39zM24.544 88.456v-1.44l5.52-7.217h2.224l-5.44 7.216-1.04-.32h8.88v1.76H24.544zm6.144 2.543v-2.543l.064-1.76v-2.257h1.952V91h-2.016zm8.587.16a8.143 8.143 0 01-2.32-.336c-.746-.234-1.376-.554-1.888-.96l.88-1.615c.406.33.896.597 1.472.8a5.546 5.546 0 001.824.303c.736 0 1.312-.154 1.728-.463.427-.31.64-.726.64-1.249 0-.352-.09-.66-.272-.927-.17-.267-.48-.47-.928-.609-.437-.138-1.04-.207-1.808-.207H35.9l.576-6.097h6.576v1.744h-5.808l1.088-.992-.432 4.56-1.088-.976h2.256c1.11 0 2 .15 2.672.448.683.288 1.179.694 1.488 1.216.32.512.48 1.1.48 1.76 0 .651-.16 1.249-.48 1.793-.32.543-.81.98-1.472 1.311-.65.331-1.477.496-2.48.496zm10.304 0a4.426 4.426 0 01-2.4-.672c-.704-.447-1.259-1.098-1.664-1.951-.405-.865-.608-1.91-.608-3.136 0-1.227.203-2.267.608-3.12.405-.865.96-1.52 1.664-1.969a4.426 4.426 0 012.4-.672c.896 0 1.696.225 2.4.672.704.448 1.259 1.104 1.664 1.968.416.854.624 1.894.624 3.12 0 1.227-.208 2.272-.624 3.136-.405.854-.96 1.505-1.664 1.953-.704.448-1.504.671-2.4.671zm0-1.808c.523 0 .976-.138 1.36-.415.384-.289.683-.726.896-1.313.224-.586.336-1.328.336-2.224 0-.906-.112-1.648-.336-2.224-.213-.586-.512-1.018-.896-1.296-.384-.288-.837-.431-1.36-.431-.501 0-.95.144-1.344.431-.384.278-.688.71-.912 1.296-.213.576-.32 1.318-.32 2.225 0 .895.107 1.637.32 2.224.224.586.528 1.023.912 1.312.395.277.843.415 1.344.415zm-28.001 68.946v-1.53l5.865-7.667h2.363l-5.78 7.667-1.105-.34h9.435v1.87H21.578zM28.106 161v-2.703l.068-1.87v-2.397h2.074V161h-2.142zm10.144.17c-.94 0-1.79-.238-2.55-.714-.748-.476-1.337-1.168-1.768-2.074-.43-.918-.646-2.029-.646-3.332 0-1.304.215-2.409.646-3.315.43-.918 1.02-1.615 1.768-2.091.76-.476 1.61-.714 2.55-.714.952 0 1.802.238 2.55.714.748.476 1.337 1.173 1.768 2.091.442.906.663 2.011.663 3.315 0 1.303-.22 2.414-.663 3.332-.43.906-1.02 1.598-1.768 2.074-.748.476-1.598.714-2.55.714zm0-1.921c.555 0 1.037-.148 1.445-.442.408-.306.725-.771.952-1.394.238-.624.357-1.411.357-2.363 0-.964-.119-1.751-.357-2.363-.227-.624-.544-1.083-.952-1.377-.408-.306-.89-.459-1.445-.459a2.36 2.36 0 00-1.428.459c-.408.294-.73.753-.969 1.377-.227.612-.34 1.399-.34 2.363 0 .952.113 1.739.34 2.363.238.623.561 1.088.97 1.394.418.294.894.442 1.427.442zm11.439 1.921c-.941 0-1.791-.238-2.55-.714-.748-.476-1.338-1.168-1.768-2.074-.431-.918-.646-2.029-.646-3.332 0-1.304.215-2.409.646-3.315.43-.918 1.02-1.615 1.768-2.091.759-.476 1.609-.714 2.55-.714.952 0 1.802.238 2.55.714.748.476 1.337 1.173 1.768 2.091.442.906.663 2.011.663 3.315 0 1.303-.221 2.414-.663 3.332-.431.906-1.02 1.598-1.768 2.074-.748.476-1.598.714-2.55.714zm0-1.921c.555 0 1.037-.148 1.445-.442.408-.306.725-.771.952-1.394.238-.624.357-1.411.357-2.363 0-.964-.12-1.751-.357-2.363-.227-.624-.544-1.083-.952-1.377-.408-.306-.89-.459-1.445-.459-.533 0-1.01.153-1.428.459-.408.294-.731.753-.97 1.377-.226.612-.34 1.399-.34 2.363 0 .952.114 1.739.34 2.363.239.623.562 1.088.97 1.394.419.294.895.442 1.428.442zM27.752 223.18a9.155 9.155 0 01-2.61-.378c-.84-.264-1.548-.624-2.124-1.08l1.008-1.818c.456.372 1.008.672 1.656.9a6.083 6.083 0 002.034.342c.84 0 1.494-.168 1.962-.504.468-.348.702-.816.702-1.404 0-.576-.216-1.032-.648-1.368-.432-.336-1.128-.504-2.088-.504h-1.152v-1.602l3.6-4.284.306.882H23.63V210.4h8.586v1.566l-3.6 4.284-1.224-.72h.702c1.548 0 2.706.348 3.474 1.044.78.684 1.17 1.566 1.17 2.646 0 .708-.18 1.362-.54 1.962-.36.6-.912 1.086-1.656 1.458-.732.36-1.662.54-2.79.54zm10.517 0a9.155 9.155 0 01-2.61-.378c-.84-.264-1.548-.624-2.124-1.08l.99-1.818c.456.372 1.008.672 1.656.9a6.24 6.24 0 002.052.342c.828 0 1.476-.174 1.944-.522.48-.348.72-.816.72-1.404 0-.396-.102-.744-.306-1.044-.192-.3-.54-.528-1.044-.684-.492-.156-1.17-.234-2.034-.234H34.47l.648-6.858h7.398v1.962h-6.534l1.224-1.116-.486 5.13-1.224-1.098h2.538c1.248 0 2.25.168 3.006.504.768.324 1.326.78 1.674 1.368.36.576.54 1.236.54 1.98 0 .732-.18 1.404-.54 2.016-.36.612-.912 1.104-1.656 1.476-.732.372-1.662.558-2.79.558zm10.424 0a9.155 9.155 0 01-2.61-.378c-.84-.264-1.548-.624-2.124-1.08l.99-1.818c.456.372 1.008.672 1.656.9a6.24 6.24 0 002.052.342c.828 0 1.476-.174 1.944-.522.48-.348.72-.816.72-1.404 0-.396-.102-.744-.306-1.044-.192-.3-.54-.528-1.044-.684-.492-.156-1.17-.234-2.034-.234h-3.042l.648-6.858h7.398v1.962h-6.534l1.224-1.116-.486 5.13-1.224-1.098h2.538c1.248 0 2.25.168 3.006.504.768.324 1.326.78 1.674 1.368.36.576.54 1.236.54 1.98 0 .732-.18 1.404-.54 2.016-.36.612-.912 1.104-1.656 1.476-.732.372-1.662.558-2.79.558zM29.28 283.2c-.987 0-1.953-.14-2.9-.42-.933-.294-1.72-.694-2.36-1.2l1.12-2.02c.507.413 1.12.746 1.84 1 .72.253 1.473.38 2.26.38.933 0 1.66-.187 2.18-.56.52-.387.78-.907.78-1.56 0-.64-.24-1.147-.72-1.52-.48-.374-1.253-.56-2.32-.56h-1.28v-1.78l4-4.76.34.98H24.7V269h9.54v1.74l-4 4.76-1.36-.8h.78c1.72 0 3.007.386 3.86 1.16.867.76 1.3 1.74 1.3 2.94 0 .786-.2 1.513-.6 2.18-.4.666-1.013 1.206-1.84 1.62-.813.4-1.847.6-3.1.6zm9.48-.2v-13l1.14 1.18h-4.1V269h5.56v14h-2.6zm10.018.2c-.987 0-1.953-.14-2.9-.42-.934-.294-1.72-.694-2.36-1.2l1.1-2.02c.506.413 1.12.746 1.84 1a6.94 6.94 0 002.28.38c.92 0 1.64-.194 2.16-.58.533-.387.8-.907.8-1.56 0-.44-.114-.827-.34-1.16-.213-.334-.6-.587-1.16-.76-.547-.174-1.3-.26-2.26-.26h-3.38l.72-7.62h8.22v2.18h-7.26l1.36-1.24-.54 5.7-1.36-1.22h2.82c1.386 0 2.5.186 3.34.56.853.36 1.473.866 1.86 1.52.4.64.6 1.373.6 2.2 0 .813-.2 1.56-.6 2.24-.4.68-1.014 1.226-1.84 1.64-.813.413-1.847.62-3.1.62zm-23.498 205c-.987 0-1.953-.14-2.9-.42-.933-.294-1.72-.694-2.36-1.2l1.12-2.02c.507.413 1.12.746 1.84 1 .72.253 1.473.38 2.26.38.933 0 1.66-.187 2.18-.56.52-.387.78-.907.78-1.56 0-.64-.24-1.147-.72-1.52-.48-.374-1.253-.56-2.32-.56h-1.28v-1.78l4-4.76.34.98H20.7V474h9.54v1.74l-4 4.76-1.36-.8h.78c1.72 0 3.007.386 3.86 1.16.867.76 1.3 1.74 1.3 2.94 0 .786-.2 1.513-.6 2.18-.4.666-1.013 1.206-1.84 1.62-.813.4-1.847.6-3.1.6zm13.08 0c-1.106 0-2.106-.28-3-.84-.88-.56-1.573-1.374-2.08-2.44-.506-1.08-.76-2.387-.76-3.92 0-1.534.254-2.834.76-3.9.507-1.08 1.2-1.9 2.08-2.46.894-.56 1.894-.84 3-.84 1.12 0 2.12.28 3 .84.88.56 1.574 1.38 2.08 2.46.52 1.066.78 2.366.78 3.9 0 1.533-.26 2.84-.78 3.92-.506 1.066-1.2 1.88-2.08 2.44-.88.56-1.88.84-3 .84zm0-2.26c.654 0 1.22-.174 1.7-.52.48-.36.854-.907 1.12-1.64.28-.734.42-1.66.42-2.78 0-1.134-.14-2.06-.42-2.78-.266-.734-.64-1.274-1.12-1.62-.48-.36-1.046-.54-1.7-.54-.626 0-1.186.18-1.68.54-.48.346-.86.886-1.14 1.62-.266.72-.4 1.646-.4 2.78 0 1.12.134 2.046.4 2.78.28.733.66 1.28 1.14 1.64.494.346 1.054.52 1.68.52zm13.458 2.26c-1.107 0-2.107-.28-3-.84-.88-.56-1.574-1.374-2.08-2.44-.507-1.08-.76-2.387-.76-3.92 0-1.534.253-2.834.76-3.9.506-1.08 1.2-1.9 2.08-2.46.893-.56 1.893-.84 3-.84 1.12 0 2.12.28 3 .84.88.56 1.573 1.38 2.08 2.46.52 1.066.78 2.366.78 3.9 0 1.533-.26 2.84-.78 3.92-.507 1.066-1.2 1.88-2.08 2.44-.88.56-1.88.84-3 .84zm0-2.26c.653 0 1.22-.174 1.7-.52.48-.36.853-.907 1.12-1.64.28-.734.42-1.66.42-2.78 0-1.134-.14-2.06-.42-2.78-.267-.734-.64-1.274-1.12-1.62-.48-.36-1.047-.54-1.7-.54-.627 0-1.187.18-1.68.54-.48.346-.86.886-1.14 1.62-.267.72-.4 1.646-.4 2.78 0 1.12.133 2.046.4 2.78.28.733.66 1.28 1.14 1.64.493.346 1.053.52 1.68.52zM20.735 387v-1.827l5.838-5.544c.49-.462.854-.868 1.092-1.218.238-.35.392-.672.462-.966.084-.308.126-.595.126-.861 0-.672-.231-1.19-.693-1.554-.462-.378-1.141-.567-2.037-.567-.714 0-1.365.126-1.953.378a3.949 3.949 0 00-1.491 1.155l-1.911-1.47c.574-.77 1.344-1.365 2.31-1.785.98-.434 2.072-.651 3.276-.651 1.064 0 1.988.175 2.772.525.798.336 1.407.819 1.827 1.449.434.63.651 1.379.651 2.247 0 .476-.063.952-.189 1.428-.126.462-.364.952-.714 1.47s-.861 1.099-1.533 1.743l-5.019 4.767-.567-1.029h8.589V387H20.735zm17.284.21a10.68 10.68 0 01-3.045-.441c-.98-.308-1.806-.728-2.478-1.26l1.155-2.121c.532.434 1.176.784 1.932 1.05a7.28 7.28 0 002.394.399c.966 0 1.722-.203 2.268-.609.56-.406.84-.952.84-1.638 0-.462-.12-.868-.357-1.218-.224-.35-.63-.616-1.218-.798-.574-.182-1.365-.273-2.373-.273h-3.55l.757-8.001h8.63v2.289h-7.622l1.428-1.302-.567 5.985-1.428-1.281h2.96c1.457 0 2.626.196 3.508.588.896.378 1.547.91 1.953 1.596.42.672.63 1.442.63 2.31 0 .854-.21 1.638-.63 2.352-.42.714-1.064 1.288-1.932 1.722-.854.434-1.94.651-3.255.651zm12.16 0a10.68 10.68 0 01-3.044-.441c-.98-.308-1.806-.728-2.478-1.26l1.155-2.121c.532.434 1.176.784 1.932 1.05a7.28 7.28 0 002.394.399c.966 0 1.722-.203 2.268-.609.56-.406.84-.952.84-1.638 0-.462-.12-.868-.357-1.218-.224-.35-.63-.616-1.218-.798-.574-.182-1.365-.273-2.373-.273h-3.55l.757-8.001h8.63v2.289h-7.622l1.428-1.302-.567 5.985-1.428-1.281h2.96c1.457 0 2.626.196 3.508.588.896.378 1.547.91 1.953 1.596.42.672.63 1.442.63 2.31 0 .854-.21 1.638-.63 2.352-.42.714-1.064 1.288-1.932 1.722-.854.434-1.94.651-3.255.651zM20.77 437v-1.914l6.116-5.808c.513-.484.895-.91 1.144-1.276.25-.367.41-.704.484-1.012.088-.323.132-.624.132-.902 0-.704-.242-1.247-.726-1.628-.484-.396-1.195-.594-2.134-.594-.748 0-1.43.132-2.046.396a4.134 4.134 0 00-1.562 1.21l-2.002-1.54c.601-.807 1.408-1.43 2.42-1.87 1.027-.455 2.17-.682 3.432-.682 1.115 0 2.083.183 2.904.55.836.352 1.474.858 1.914 1.518.455.66.682 1.444.682 2.354 0 .498-.066.997-.198 1.496-.132.484-.381.997-.748 1.54-.367.542-.902 1.151-1.606 1.826l-5.258 4.994-.594-1.078h8.998V437H20.77zm12.805 0v-1.914l6.116-5.808c.513-.484.894-.91 1.144-1.276.249-.367.41-.704.484-1.012.088-.323.132-.624.132-.902 0-.704-.242-1.247-.726-1.628-.484-.396-1.196-.594-2.134-.594-.748 0-1.43.132-2.046.396a4.134 4.134 0 00-1.562 1.21l-2.002-1.54c.601-.807 1.408-1.43 2.42-1.87 1.026-.455 2.17-.682 3.432-.682 1.114 0 2.082.183 2.904.55.836.352 1.474.858 1.914 1.518.454.66.682 1.444.682 2.354 0 .498-.066.997-.198 1.496-.132.484-.382.997-.748 1.54-.367.542-.902 1.151-1.606 1.826l-5.258 4.994-.594-1.078h8.998V437H33.575zm18.106.22c-1.085 0-2.148-.154-3.19-.462-1.026-.323-1.892-.763-2.596-1.32l1.21-2.222c.558.454 1.232.821 2.024 1.1a7.644 7.644 0 002.508.418c1.012 0 1.804-.213 2.376-.638.587-.426.88-.998.88-1.716 0-.484-.124-.91-.374-1.276-.234-.367-.66-.646-1.276-.836-.601-.191-1.43-.286-2.486-.286H47.04l.792-8.382h9.042v2.398h-7.986l1.496-1.364-.594 6.27-1.496-1.342h3.102c1.526 0 2.75.205 3.674.616.939.396 1.621.953 2.046 1.672.44.704.66 1.51.66 2.42 0 .894-.22 1.716-.66 2.464-.44.748-1.114 1.349-2.024 1.804-.894.454-2.031.682-3.41.682zM20.7 332v-1.74l5.56-5.28c.467-.44.813-.827 1.04-1.16.227-.334.373-.64.44-.92.08-.294.12-.567.12-.82 0-.64-.22-1.134-.66-1.48-.44-.36-1.087-.54-1.94-.54-.68 0-1.3.12-1.86.36-.547.24-1.02.606-1.42 1.1l-1.82-1.4c.547-.734 1.28-1.3 2.2-1.7.933-.414 1.973-.62 3.12-.62 1.013 0 1.893.166 2.64.5.76.32 1.34.78 1.74 1.38.413.6.62 1.313.62 2.14 0 .453-.06.906-.18 1.36-.12.44-.347.906-.68 1.4-.333.493-.82 1.046-1.46 1.66l-4.78 4.54-.54-.98h8.18v2.2H20.7zm17.66.2c-1.106 0-2.106-.28-3-.84-.88-.56-1.573-1.374-2.08-2.44-.506-1.08-.76-2.387-.76-3.92 0-1.534.254-2.834.76-3.9.507-1.08 1.2-1.9 2.08-2.46.894-.56 1.894-.84 3-.84 1.12 0 2.12.28 3 .84.88.56 1.574 1.38 2.08 2.46.52 1.066.78 2.366.78 3.9 0 1.533-.26 2.84-.78 3.92-.506 1.066-1.2 1.88-2.08 2.44-.88.56-1.88.84-3 .84zm0-2.26c.654 0 1.22-.174 1.7-.52.48-.36.854-.907 1.12-1.64.28-.734.42-1.66.42-2.78 0-1.134-.14-2.06-.42-2.78-.266-.734-.64-1.274-1.12-1.62-.48-.36-1.046-.54-1.7-.54-.626 0-1.186.18-1.68.54-.48.346-.86.886-1.14 1.62-.266.72-.4 1.646-.4 2.78 0 1.12.134 2.046.4 2.78.28.733.66 1.28 1.14 1.64.494.346 1.054.52 1.68.52zm13.458 2.26c-1.107 0-2.107-.28-3-.84-.88-.56-1.574-1.374-2.08-2.44-.507-1.08-.76-2.387-.76-3.92 0-1.534.253-2.834.76-3.9.506-1.08 1.2-1.9 2.08-2.46.893-.56 1.893-.84 3-.84 1.12 0 2.12.28 3 .84.88.56 1.573 1.38 2.08 2.46.52 1.066.78 2.366.78 3.9 0 1.533-.26 2.84-.78 3.92-.507 1.066-1.2 1.88-2.08 2.44-.88.56-1.88.84-3 .84zm0-2.26c.653 0 1.22-.174 1.7-.52.48-.36.853-.907 1.12-1.64.28-.734.42-1.66.42-2.78 0-1.134-.14-2.06-.42-2.78-.267-.734-.64-1.274-1.12-1.62-.48-.36-1.047-.54-1.7-.54-.627 0-1.187.18-1.68.54-.48.346-.86.886-1.14 1.62-.267.72-.4 1.646-.4 2.78 0 1.12.133 2.046.4 2.78.28.733.66 1.28 1.14 1.64.493.346 1.053.52 1.68.52zM24.432 557v-14.3l1.254 1.298h-4.51V541.6h6.116V557h-2.86zm12.58.22c-1.392 0-2.588-.294-3.585-.88-.997-.602-1.76-1.467-2.288-2.596-.528-1.13-.792-2.523-.792-4.18 0-1.76.315-3.249.946-4.466.645-1.218 1.533-2.142 2.662-2.772 1.144-.631 2.457-.946 3.938-.946.777 0 1.518.08 2.222.242.719.161 1.327.41 1.826.748l-1.056 2.156a3.947 3.947 0 00-1.386-.572 6.484 6.484 0 00-1.54-.176c-1.452 0-2.603.447-3.454 1.342-.85.894-1.276 2.214-1.276 3.96 0 .278.007.608.022.99.015.366.066.74.154 1.122l-.88-.968c.264-.602.623-1.1 1.078-1.496a4.657 4.657 0 011.65-.924 6.837 6.837 0 012.09-.308c1.012 0 1.914.198 2.706.594a4.587 4.587 0 011.892 1.65c.47.704.704 1.532.704 2.486 0 1.012-.25 1.892-.748 2.64a4.982 4.982 0 01-2.024 1.738c-.85.41-1.804.616-2.86.616zm-.153-2.244c.587 0 1.107-.103 1.562-.308a2.5 2.5 0 001.056-.924c.264-.396.396-.858.396-1.386 0-.807-.279-1.445-.836-1.914-.557-.47-1.305-.704-2.244-.704-.616 0-1.159.117-1.628.352a2.82 2.82 0 00-1.1.924 2.4 2.4 0 00-.396 1.364c0 .469.125.902.374 1.298.25.396.609.711 1.078.946.484.234 1.063.352 1.738.352zm13.705 2.244c-1.218 0-2.318-.308-3.3-.924-.968-.616-1.73-1.511-2.288-2.684-.557-1.188-.836-2.626-.836-4.312 0-1.687.279-3.117.836-4.29.557-1.188 1.32-2.09 2.288-2.706.982-.616 2.082-.924 3.3-.924 1.232 0 2.332.308 3.3.924.968.616 1.73 1.518 2.288 2.706.572 1.173.858 2.603.858 4.29 0 1.686-.286 3.124-.858 4.312-.558 1.173-1.32 2.068-2.288 2.684-.968.616-2.068.924-3.3.924zm0-2.486c.718 0 1.342-.191 1.87-.572.528-.396.939-.998 1.232-1.804.308-.807.462-1.826.462-3.058 0-1.247-.154-2.266-.462-3.058-.293-.807-.704-1.401-1.232-1.782-.528-.396-1.151-.594-1.87-.594-.69 0-1.306.198-1.848.594-.528.381-.946.975-1.254 1.782-.294.792-.44 1.811-.44 3.058 0 1.232.147 2.251.44 3.058.308.806.726 1.408 1.254 1.804a3.138 3.138 0 001.848.572zM28.12 630v-13l1.14 1.18h-4.1V616h5.56v14h-2.6zm7.617 0v-13l1.14 1.18h-4.1V616h5.56v14h-2.6zm11.217.2c-1.106 0-2.106-.28-3-.84-.88-.56-1.573-1.374-2.08-2.44-.506-1.08-.76-2.387-.76-3.92 0-1.534.254-2.834.76-3.9.507-1.08 1.2-1.9 2.08-2.46.894-.56 1.894-.84 3-.84 1.12 0 2.12.28 3 .84.88.56 1.574 1.38 2.08 2.46.52 1.066.78 2.366.78 3.9 0 1.533-.26 2.84-.78 3.92-.506 1.066-1.2 1.88-2.08 2.44-.88.56-1.88.84-3 .84zm0-2.26c.654 0 1.22-.174 1.7-.52.48-.36.854-.907 1.12-1.64.28-.734.42-1.66.42-2.78 0-1.134-.14-2.06-.42-2.78-.266-.734-.64-1.274-1.12-1.62-.48-.36-1.046-.54-1.7-.54-.626 0-1.186.18-1.68.54-.48.346-.86.886-1.14 1.62-.266.72-.4 1.646-.4 2.78 0 1.12.134 2.046.4 2.78.28.733.66 1.28 1.14 1.64.494.346 1.054.52 1.68.52zm-12.708 57.24c-1.14 0-2.118-.24-2.934-.72-.816-.492-1.44-1.2-1.872-2.124-.432-.924-.648-2.064-.648-3.42 0-1.44.258-2.658.774-3.654.528-.996 1.254-1.752 2.178-2.268.936-.516 2.01-.774 3.222-.774.636 0 1.242.066 1.818.198.588.132 1.086.336 1.494.612l-.864 1.764a3.245 3.245 0 00-1.134-.468 5.333 5.333 0 00-1.26-.144c-1.188 0-2.13.366-2.826 1.098-.696.732-1.044 1.812-1.044 3.24 0 .228.006.498.018.81.012.3.054.606.126.918l-.72-.792c.216-.492.51-.9.882-1.224a3.82 3.82 0 011.35-.756 5.61 5.61 0 011.71-.252c.828 0 1.566.162 2.214.486a3.757 3.757 0 011.548 1.35c.384.576.576 1.254.576 2.034 0 .828-.204 1.548-.612 2.16a4.074 4.074 0 01-1.656 1.422c-.696.336-1.476.504-2.34.504zm-.126-1.836c.48 0 .906-.084 1.278-.252.372-.18.66-.432.864-.756.216-.324.324-.702.324-1.134 0-.66-.228-1.182-.684-1.566-.456-.384-1.068-.576-1.836-.576-.504 0-.948.096-1.332.288-.372.18-.672.432-.9.756a1.965 1.965 0 00-.324 1.116c0 .384.102.738.306 1.062.204.324.498.582.882.774.396.192.87.288 1.422.288zm9.917 1.836a9.155 9.155 0 01-2.61-.378c-.84-.264-1.548-.624-2.124-1.08l1.008-1.818c.456.372 1.008.672 1.656.9a6.083 6.083 0 002.034.342c.84 0 1.494-.168 1.962-.504.468-.348.702-.816.702-1.404 0-.576-.216-1.032-.648-1.368-.432-.336-1.128-.504-2.088-.504h-1.152v-1.602l3.6-4.284.306.882h-6.768V672.4h8.586v1.566l-3.6 4.284-1.224-.72h.702c1.548 0 2.706.348 3.474 1.044.78.684 1.17 1.566 1.17 2.646 0 .708-.18 1.362-.54 1.962-.36.6-.912 1.086-1.656 1.458-.732.36-1.662.54-2.79.54z" fill="#A0A0A0"/></svg>