<svg width="65" height="64" viewBox="0 0 65 64" fill="none" xmlns="http://www.w3.org/2000/svg">
<g clip-path="url(#clip0_988_603)">
<path d="M28.7663 19.85C28.4733 19.45 28.0067 19.2136 27.5109 19.2136C27.015 19.2136 26.5485 19.45 26.2554 19.85L17.9805 31.1418C17.634 31.6148 17.5825 32.2425 17.8477 32.7655C18.1128 33.2885 18.6494 33.6181 19.2359 33.6181H22.638V59.8461C22.638 60.7057 23.3347 61.4026 24.1943 61.4026H30.827C31.6866 61.4026 32.3835 60.7059 32.3835 59.8461V33.6181H35.7854C36.3718 33.6181 36.9083 33.2885 37.1736 32.7655C37.4389 32.2425 37.3874 31.615 37.0408 31.1418L28.7663 19.85Z" fill="#FFE300"/>
<path d="M11.3364 29.0843C11.0433 28.6844 10.5768 28.448 10.081 28.448C9.58514 28.448 9.11861 28.6844 8.82554 29.0843L0.550794 40.3761C0.204289 40.8493 0.152787 41.4768 0.418053 41.9998C0.683104 42.5228 1.21967 42.8525 1.80623 42.8525H5.20836V59.8464C5.20836 60.7059 5.90503 61.4028 6.76461 61.4028H13.3973C14.2569 61.4028 14.9538 60.7062 14.9538 59.8464V42.8525H18.3559C18.9425 42.8525 19.4788 42.5228 19.7441 41.9998C20.0094 41.4768 19.9579 40.8491 19.6114 40.3761L11.3364 29.0843Z" fill="#FFE300"/>
<path d="M52.5508 16.3174C56.3355 16.3174 59.4141 13.2385 59.4141 9.45388C59.4141 5.66926 56.3352 2.59058 52.5508 2.59058C48.7664 2.59058 45.6873 5.66947 45.6873 9.45388C45.6873 13.2383 48.7664 16.3174 52.5508 16.3174Z" fill="#FFE300"/>
<path d="M60.0884 19.6425L60.077 19.6386L58.118 19.0376C57.809 18.9426 57.4789 19.1062 57.3679 19.4109L53.2488 30.7126C53.0112 31.3647 52.0891 31.3647 51.8514 30.7126L47.7323 19.4109C47.6427 19.1648 47.4104 19.0105 47.1613 19.0105C47.1023 19.0105 45.0256 19.638 45.0256 19.638C42.5234 20.4717 40.8514 22.7917 40.8514 25.4146V37.3701C40.8514 37.4888 40.8861 37.605 40.9514 37.7041L45.2493 44.2446V60.7939C45.2493 61.1298 45.5217 61.4022 45.8576 61.4022H59.2427C59.5786 61.4022 59.851 61.1298 59.851 60.7939V44.2446L64.1489 37.7041C64.214 37.605 64.2489 37.4888 64.2489 37.3701V25.3831C64.2489 22.7716 62.5704 20.4556 60.0884 19.6425Z" fill="#FFE300"/>
<path d="M54.3409 18.5393C54.1515 18.3331 53.8748 18.2292 53.5949 18.2292H51.5068C51.2269 18.2292 50.9502 18.3331 50.7608 18.5393C50.4677 18.8587 50.4253 19.3198 50.6332 19.6803L51.7495 21.3631L51.2269 25.7711L52.2559 28.5083C52.3563 28.7834 52.7454 28.7834 52.8459 28.5083L53.8748 25.7711L53.3523 21.3631L54.4685 19.6803C54.6766 19.3198 54.634 18.8587 54.3409 18.5393Z" fill="#FFE300"/>
</g>
<defs>
<clipPath id="clip0_988_603">
<rect width="64" height="64" fill="white" transform="translate(0.25 -0.00292969)"/>
</clipPath>
</defs>
</svg>
