<svg width="32" height="32" fill="none" xmlns="http://www.w3.org/2000/svg"><path d="M31.366 25.547l-6.89-3.993c-.358-.18-.883-.098-1.168.182l-2.029 1.992c-.284.28-.844.513-1.247.516 0 0-2.593.028-7.409-4.707-4.815-4.735-4.793-7.294-4.793-7.294.003-.396.24-.947.525-1.227l1.728-1.699c.284-.28.38-.802.21-1.16l-3.8-7.03C6.325.768 5.954.702 5.67.982L.956 5.608c-.284.276-.56.827-.614 1.22 0 0-.918 6.756 8.707 16.224 9.629 9.467 16.5 8.561 16.5 8.561.396-.053.956-.324 1.24-.604l4.708-4.628c.288-.28.227-.655-.131-.834z" fill="#000"/><path d="M14.543 12.871a5.934 5.934 0 012.758 1.533 5.785 5.785 0 011.562 2.728h1.926a6.977 6.977 0 00-2.038-4.1 7.13 7.13 0 00-4.205-2.02v1.86h-.003zm14.431 4.263h2.263C31.074 8.645 23.176.9 14.539.77v2.174c7.747.425 13.971 6.55 14.435 14.19z" fill="#000"/><path d="M23.753 17.132h2.265c-.454-6.035-5.36-10.865-11.475-11.28v2.246c4.87.406 8.765 4.235 9.21 9.034z" fill="#000"/></svg>