<svg width="39" height="39" fill="none" xmlns="http://www.w3.org/2000/svg"><path d="M19.5 0C30.27 0 39 8.73 39 19.5S30.27 39 19.5 39 0 30.27 0 19.5 8.73 0 19.5 0zm6.727 27.448c.358-1.1 2.039-12.068 2.246-14.229.063-.654-.144-1.09-.549-1.283-.49-.236-1.216-.118-2.058.185-1.154.417-15.917 6.685-16.77 7.048-.809.343-1.573.718-1.573 1.26 0 .382.226.596.85.82.65.23 2.285.727 3.25.993.93.257 1.99.034 2.583-.335.63-.39 7.89-5.249 8.41-5.674.521-.426.937.119.511.546-.426.425-5.41 5.262-6.066 5.932-.798.813-.232 1.655.303 1.993.612.385 5.008 3.334 5.67 3.807.662.473 1.333.687 1.948.687s.939-.81 1.245-1.75z" fill="#fff"/></svg>