<svg width="39" height="39" fill="none" xmlns="http://www.w3.org/2000/svg"><g clip-path="url(#clip0_1041_4457)"><path d="M19.5 0C8.73 0 0 8.73 0 19.5S8.73 39 19.5 39 39 30.27 39 19.5 30.27 0 19.5 0zm11.444 26.625l-3.364.046s-.724.144-1.673-.513c-1.26-.864-2.445-3.11-3.369-2.822-.924.287-.908 2.309-.908 2.309.003.237-.07.47-.208.662-.194.166-.434.27-.688.3h-1.49s-3.336.198-6.248-2.845c-3.202-3.305-6.022-9.907-6.022-9.907s-.166-.383.015-.641c.157-.224.544-.248.74-.257.841-.04 3.37-.023 3.37-.023.212-.005.354.006.617.12a.999.999 0 01.505.545c.39.969.84 1.912 1.352 2.822 1.504 2.6 2.204 3.166 2.715 2.89.741-.406.513-3.672.513-3.672s0-1.188-.375-1.714a1.691 1.691 0 00-1.11-.583c-.203-.028.13-.498.561-.708.647-.318 1.791-.318 3.14-.318a6.4 6.4 0 011.766.18c1.242.3.821 1.454.821 4.23 0 .888-.162 2.14.48 2.566.277.177.95.026 2.637-2.838a21.99 21.99 0 001.399-2.95c.075-.162.19-.302.333-.408a.867.867 0 01.49-.085l3.788-.026s1.136-.136 1.321.38c.185.516-.426 1.796-1.973 3.849-2.54 3.387-2.823 3.079-.713 5.026 2.014 1.87 2.432 2.781 2.501 2.894.837 1.38-.924 1.491-.924 1.491z" fill="#fff"/></g><defs><clipPath id="clip0_1041_4457"><path fill="#fff" d="M0 0h39v39H0z"/></clipPath></defs></svg>