<svg width="39" height="39" fill="none" xmlns="http://www.w3.org/2000/svg"><path d="M19.5 0C8.748 0 0 8.748 0 19.5c0 3.357.867 6.659 2.512 9.572l-2.48 8.851a.847.847 0 001.02 1.052l9.237-2.288A19.512 19.512 0 0019.5 39C30.252 39 39 30.252 39 19.5S30.252 0 19.5 0zm9.81 26.381c-.418 1.155-2.419 2.209-3.38 2.35-.863.127-1.955.18-3.154-.196a29.35 29.35 0 01-2.854-1.042c-5.021-2.141-8.3-7.134-8.552-7.464-.25-.33-2.044-2.68-2.044-5.112 0-2.433 1.293-3.629 1.753-4.124.46-.495 1-.62 1.335-.62.334 0 .667.005.96.019.307.015.72-.116 1.126.848.418.99 1.419 3.423 1.543 3.671.125.248.208.537.042.867-.166.33-.25.536-.5.825-.251.289-.526.644-.751.866-.251.247-.512.514-.22 1.01.292.494 1.296 2.113 2.785 3.424 1.912 1.683 3.525 2.206 4.026 2.453.5.248.792.206 1.084-.123.292-.331 1.251-1.444 1.585-1.939.333-.494.667-.413 1.126-.247.46.164 2.921 1.36 3.421 1.607.5.248.835.372.96.578.126.205.126 1.195-.292 2.349z" fill="#fff"/></svg>