<svg width="39" height="39" viewBox="0 0 39 39" fill="none" xmlns="http://www.w3.org/2000/svg">
<path d="M19.5 0C30.2699 0 39 8.73007 39 19.5C39 30.2699 30.2699 39 19.5 39C8.73007 39 0 30.2699 0 19.5C0 8.73007 8.73007 0 19.5 0ZM26.2267 27.4484C26.5853 26.3479 28.2657 15.3804 28.4734 13.2193C28.5361 12.5648 28.3293 12.1298 27.924 11.9357C27.434 11.7 26.7082 11.8178 25.8663 12.1214C24.7116 12.5377 9.94924 18.8056 9.09633 19.1685C8.2875 19.5119 7.52276 19.8866 7.52276 20.4292C7.52276 20.8107 7.74913 21.0252 8.37313 21.2482C9.02256 21.4797 10.658 21.9757 11.6237 22.2419C12.5538 22.4988 13.6127 22.2758 14.2062 21.907C14.8353 21.5161 22.0952 16.6581 22.6166 16.2325C23.1372 15.8069 23.5526 16.352 23.127 16.7785C22.7014 17.2041 17.7179 22.0409 17.0608 22.7107C16.263 23.5238 16.8293 24.3665 17.3643 24.704C17.9756 25.0889 22.3716 28.0376 23.0337 28.5107C23.6959 28.9838 24.3674 29.1983 24.982 29.1983C25.5967 29.1983 25.9206 28.3886 26.2267 27.4484Z" fill="white"/>
</svg>
