<svg width="39" height="39" viewBox="0 0 39 39" fill="none" xmlns="http://www.w3.org/2000/svg">
<g clip-path="url(#clip0_1041_4457)">
<path d="M19.5 0C8.73044 0 0 8.73044 0 19.5C0 30.2696 8.73044 39 19.5 39C30.2696 39 39 30.2696 39 19.5C39 8.73044 30.2696 0 19.5 0ZM30.9435 26.6252L27.5797 26.6714C27.5797 26.6714 26.8561 26.815 25.9068 26.1582C24.647 25.2935 23.4616 23.0485 22.538 23.3358C21.6143 23.6231 21.6297 25.645 21.6297 25.645C21.6327 25.8821 21.5598 26.1141 21.4219 26.307C21.2277 26.4734 20.9882 26.5779 20.7343 26.6072H19.2435C19.2435 26.6072 15.908 26.8048 12.9958 23.7617C9.79372 20.457 6.97392 13.8552 6.97392 13.8552C6.97392 13.8552 6.80786 13.4723 6.9893 13.2138C7.14614 12.9903 7.53294 12.9663 7.72825 12.9572C8.57017 12.9178 11.0997 12.9341 11.0997 12.9341C11.3113 12.9289 11.4535 12.94 11.7155 13.0547C11.9406 13.166 12.1114 13.3318 12.2209 13.5987C12.6101 14.5677 13.0618 15.5105 13.5731 16.4211C15.0767 19.0202 15.7772 19.5872 16.2878 19.3101C17.0293 18.9047 16.8009 15.6385 16.8009 15.6385C16.8009 15.6385 16.8009 14.4505 16.4263 13.9245C16.1443 13.5951 15.7466 13.3866 15.3153 13.3421C15.1127 13.3139 15.4462 12.8443 15.8773 12.6339C16.5238 12.3158 17.6682 12.3158 19.0178 12.3158C19.6117 12.2934 20.2058 12.3539 20.783 12.4954C22.0249 12.7956 21.6041 13.9502 21.6041 16.7264C21.6041 17.6141 21.4425 18.8662 22.0839 19.2921C22.361 19.4692 23.0332 19.3178 24.7215 16.4543C25.2601 15.5068 25.7275 14.5206 26.1199 13.5037C26.1954 13.342 26.3101 13.2019 26.4534 13.0957C26.605 13.0202 26.7754 12.9908 26.9435 13.011L30.7306 12.9853C30.7306 12.9853 31.8673 12.8494 32.052 13.365C32.2367 13.8808 31.626 15.1611 30.0789 17.2137C27.5388 20.6005 27.2565 20.2926 29.3656 22.2401C31.3798 24.1105 31.798 25.0214 31.8673 25.1343C32.7036 26.5149 30.9435 26.6252 30.9435 26.6252Z" fill="white"/>
</g>
<defs>
<clipPath id="clip0_1041_4457">
<rect width="39" height="39" fill="white"/>
</clipPath>
</defs>
</svg>
