<svg width="39" height="39" viewBox="0 0 39 39" fill="none" xmlns="http://www.w3.org/2000/svg">
<path d="M19.5001 0C8.74797 0 0.000125837 8.74787 0.000125837 19.5C0.000125837 22.8574 0.867449 26.1588 2.51223 29.072L0.0314953 37.9233C-0.0498958 38.2141 0.0289519 38.5261 0.239212 38.7423C0.401146 38.9093 0.62158 39 0.847949 39C0.915775 39 0.984449 38.9915 1.05143 38.9754L10.2893 36.6871C13.11 38.2013 16.2868 39 19.5001 39C30.2522 39 39 30.2521 39 19.5C39 8.74787 30.2522 0 19.5001 0ZM29.3094 26.381C28.8922 27.5357 26.8914 28.5895 25.93 28.7311C25.0669 28.8575 23.9749 28.9117 22.7761 28.5353C22.0495 28.3064 21.1169 28.0028 19.9223 27.4933C14.9006 25.3517 11.6212 20.3588 11.3703 20.029C11.1202 19.6992 9.32618 17.3491 9.32618 14.9167C9.32618 12.4842 10.6191 11.288 11.0786 10.7928C11.5382 10.2977 12.0799 10.1739 12.414 10.1739C12.748 10.1739 13.0812 10.1782 13.3737 10.1917C13.6815 10.207 14.0943 10.0756 14.5004 11.0404C14.9176 12.0307 15.9189 14.4631 16.0426 14.7115C16.1681 14.959 16.2512 15.2482 16.085 15.578C15.9189 15.9078 15.8358 16.1138 15.5848 16.4029C15.3339 16.692 15.0592 17.0472 14.8336 17.2694C14.5827 17.5161 14.3224 17.7832 14.6141 18.2783C14.9057 18.7734 15.9104 20.3919 17.3992 21.7027C19.311 23.3864 20.9244 23.9087 21.4246 24.1563C21.9248 24.4038 22.2173 24.3623 22.509 24.0325C22.8006 23.7018 23.7604 22.5886 24.0936 22.0943C24.4268 21.6001 24.7608 21.6815 25.2203 21.8468C25.6798 22.0113 28.1411 23.2067 28.6413 23.4543C29.1415 23.7018 29.4756 23.8256 29.601 24.0316C29.7265 24.2368 29.7265 25.2271 29.3094 26.381Z" fill="white"/>
</svg>
