<svg width="519" height="123" viewBox="0 0 519 123" fill="none" xmlns="http://www.w3.org/2000/svg">
<path d="M403.15 120.266V3.36572H465.608C481.752 3.36572 493.664 6.26039 501.346 12.0497C509.028 17.7277 512.869 25.0201 512.869 33.9267C512.869 39.8274 511.199 45.1157 507.859 49.7917C504.631 54.3564 499.899 57.9747 493.664 60.6467C487.43 63.3187 479.748 64.6547 470.618 64.6547L473.958 55.6367C483.088 55.6367 490.937 56.9171 497.505 59.4777C504.185 62.0384 509.307 65.7681 512.869 70.6667C516.543 75.4541 518.38 81.2434 518.38 88.0347C518.38 98.1661 514.15 106.071 505.688 111.749C497.338 117.427 485.092 120.266 468.948 120.266H403.15ZM441.894 92.7107H465.608C469.95 92.7107 473.179 91.9314 475.294 90.3727C477.521 88.8141 478.634 86.5317 478.634 83.5257C478.634 80.5197 477.521 78.2374 475.294 76.6787C473.179 75.1201 469.95 74.3407 465.608 74.3407H439.222V48.2887H460.264C464.718 48.2887 467.946 47.5651 469.95 46.1177C472.066 44.5591 473.123 42.3881 473.123 39.6047C473.123 36.7101 472.066 34.5391 469.95 33.0917C467.946 31.6444 464.718 30.9207 460.264 30.9207H441.894V92.7107Z" fill="url(#paint0_linear_988_788)"/>
<path d="M268.93 120.266V3.36572H301.328L360.78 74.5077H345.75V3.36572H384.16V120.266H351.762L292.31 49.1237H307.34V120.266H268.93Z" fill="url(#paint1_linear_988_788)"/>
<path d="M201.203 122.938C191.74 122.938 183 121.491 174.984 118.596C167.08 115.59 160.177 111.359 154.276 105.904C148.487 100.449 143.978 93.9912 140.749 86.5319C137.521 79.0725 135.906 70.8338 135.906 61.8158C135.906 52.7978 137.521 44.5592 140.749 37.0998C143.978 29.6405 148.543 23.1832 154.443 17.7278C160.344 12.2725 167.302 8.09751 175.318 5.20285C183.446 2.19685 192.352 0.693848 202.038 0.693848C213.617 0.693848 223.915 2.64218 232.933 6.53884C242.063 10.4355 249.578 16.0022 255.478 23.2388L230.261 45.4498C226.587 41.2192 222.579 38.0462 218.237 35.9309C214.007 33.7042 209.275 32.5908 204.042 32.5908C199.7 32.5908 195.748 33.2588 192.185 34.5948C188.734 35.9308 185.784 37.8792 183.334 40.4398C180.885 43.0005 178.992 46.0622 177.656 49.6249C176.32 53.1875 175.652 57.2512 175.652 61.8158C175.652 66.1578 176.32 70.1658 177.656 73.8398C178.992 77.4025 180.885 80.4642 183.334 83.0248C185.784 85.5855 188.678 87.5895 192.018 89.0369C195.47 90.3729 199.311 91.0408 203.541 91.0408C207.995 91.0408 212.337 90.3172 216.567 88.8698C220.798 87.3112 225.307 84.6948 230.094 81.0209L252.138 108.075C245.013 112.862 236.886 116.536 227.756 119.097C218.627 121.658 209.776 122.938 201.203 122.938ZM217.903 103.065V58.6428H252.138V108.075L217.903 103.065Z" fill="url(#paint2_linear_988_788)"/>
<path d="M50.2777 120.266L0.845673 3.36572H43.2637L83.5107 102.063H58.2937L99.7097 3.36572H138.454L89.0217 120.266H50.2777Z" fill="url(#paint3_linear_988_788)"/>
<defs>
<linearGradient id="paint0_linear_988_788" x1="460.765" y1="3.36572" x2="460.765" y2="120.266" gradientUnits="userSpaceOnUse">
<stop stop-color="#5F8FB3"/>
<stop offset="1" stop-color="white"/>
</linearGradient>
<linearGradient id="paint1_linear_988_788" x1="326.545" y1="3.36572" x2="326.545" y2="120.266" gradientUnits="userSpaceOnUse">
<stop stop-color="#5F8FB3"/>
<stop offset="1" stop-color="white"/>
</linearGradient>
<linearGradient id="paint2_linear_988_788" x1="195.692" y1="0.693848" x2="195.692" y2="122.938" gradientUnits="userSpaceOnUse">
<stop stop-color="#5F8FB3"/>
<stop offset="1" stop-color="white"/>
</linearGradient>
<linearGradient id="paint3_linear_988_788" x1="69.6497" y1="3.36572" x2="69.6497" y2="120.266" gradientUnits="userSpaceOnUse">
<stop stop-color="#5F8FB3"/>
<stop offset="1" stop-color="white"/>
</linearGradient>
</defs>
</svg>
