<svg width="114" height="36" fill="none" xmlns="http://www.w3.org/2000/svg"><path d="M16.52 36l7-14h-14l7 14zm71.681-6.84V3.96h13.464c3.48 0 6.048.625 7.704 1.873 1.656 1.224 2.484 2.796 2.484 4.716 0 1.272-.36 2.412-1.08 3.42-.696.984-1.716 1.764-3.06 2.34-1.344.576-3 .864-4.968.864l.72-1.944c1.968 0 3.66.276 5.076.828 1.44.552 2.544 1.356 3.312 2.412.792 1.032 1.188 2.28 1.188 3.744 0 2.184-.912 3.888-2.736 5.112-1.8 1.224-4.44 1.836-7.92 1.836H88.201zm8.352-5.94h5.112c.936 0 1.632-.167 2.088-.503.48-.336.72-.828.72-1.476s-.24-1.14-.72-1.476c-.456-.336-1.152-.504-2.088-.504h-5.688v-5.616h4.536c.96 0 1.656-.156 2.088-.468.456-.336.684-.804.684-1.404 0-.624-.228-1.092-.684-1.404-.432-.312-1.128-.468-2.088-.468h-3.96v13.32zm-37.285 5.94V3.96h6.984l12.816 15.337h-3.24V3.96h8.28v25.2h-6.984L64.308 13.825h3.24V29.16h-8.28zm-14.6.577c-2.04 0-3.924-.312-5.652-.936-1.704-.648-3.192-1.56-4.464-2.736a12.486 12.486 0 01-2.916-4.176c-.696-1.608-1.044-3.384-1.044-5.328 0-1.944.348-3.72 1.044-5.328.696-1.608 1.68-3 2.952-4.176 1.272-1.176 2.772-2.076 4.5-2.7 1.752-.648 3.672-.972 5.76-.972 2.496 0 4.716.42 6.66 1.26 1.968.84 3.588 2.04 4.86 3.6l-5.436 4.788c-.792-.912-1.656-1.596-2.592-2.052-.912-.48-1.932-.72-3.06-.72-.936 0-1.788.144-2.556.432a5.199 5.199 0 00-1.908 1.26 5.743 5.743 0 00-1.224 1.98c-.288.768-.432 1.644-.432 2.628 0 .936.144 1.8.432 2.592a5.743 5.743 0 001.224 1.98 5.693 5.693 0 001.872 1.296c.744.288 1.572.432 2.484.432.96 0 1.896-.156 2.808-.468.912-.336 1.884-.9 2.916-1.692l4.752 5.832c-1.536 1.032-3.288 1.824-5.256 2.376-1.968.552-3.876.828-5.724.828zm3.6-4.284v-9.576h7.38v10.656l-7.38-1.08z" fill="#FFE300"/><path d="M12.133 29.16L1.477 3.96h9.144l8.676 21.277H13.86L22.789 3.96h8.352l-10.656 25.2h-8.352z" fill="#FFE300"/><path d="M12.296 25L1.52 0h9.247l8.774 21.107h-5.497L23.073 0h8.447L20.742 25h-8.447z" fill="#FFE300"/><path d="M29.46 9.096L0 16.99l.538 2.009L30 11.104l-.538-2.008zm0 8.184L0 25.173l.398 1.486 29.462-7.894-.398-1.487zm0 6.84L0 32.012l.305 1.14 29.462-7.895-.305-1.139z" fill="#3B3A39"/></svg>