<svg width="32" height="32" viewBox="0 0 32 32" fill="none" xmlns="http://www.w3.org/2000/svg">
<path d="M31.3659 25.5467L24.4763 21.5538C24.1179 21.3745 23.5931 21.4563 23.3083 21.7363L21.2795 23.728C20.9947 24.008 20.4347 24.2409 20.0315 24.244C20.0315 24.244 17.4395 24.2723 12.6235 19.5369C7.80754 14.8015 7.82994 12.2434 7.82994 12.2434C7.83314 11.847 8.06994 11.2963 8.35474 11.0163L10.0827 9.31722C10.3675 9.03718 10.4635 8.51487 10.2939 8.15617L6.49234 1.12698C6.32594 0.768283 5.95474 0.702208 5.66994 0.982243L0.956343 5.60754C0.671543 5.88443 0.396343 6.43506 0.341943 6.82837C0.341943 6.82837 -0.576457 13.5838 9.04914 23.0515C18.6779 32.5192 25.5483 31.613 25.5483 31.613C25.9451 31.5596 26.5051 31.289 26.7899 31.0089L31.4971 26.3805C31.7851 26.1004 31.7243 25.726 31.3659 25.5467Z" fill="black"/>
<path d="M14.543 12.8713C15.5542 13.1198 16.511 13.6264 17.3014 14.4036C18.095 15.1839 18.6134 16.1342 18.863 17.1316H20.7894C20.591 15.5835 19.887 14.1519 18.751 13.0317C17.6022 11.8959 16.1334 11.1974 14.5462 11.0117V12.8713H14.543Z" fill="black"/>
<path d="M28.9743 17.1343H31.2367C31.0735 8.64512 23.1759 0.898536 14.5391 0.769531V2.94374C22.2863 3.36851 28.5103 9.49467 28.9743 17.1343Z" fill="black"/>
<path d="M23.7526 17.1316H26.0182C25.5638 11.0967 20.6582 6.2669 14.543 5.85156V8.09813C19.4134 8.50403 23.3078 12.3333 23.7526 17.1316Z" fill="black"/>
</svg>
