<svg width="114" height="36" viewBox="0 0 114 36" fill="none" xmlns="http://www.w3.org/2000/svg">
<path d="M16.5195 36L23.5195 22H9.51953L16.5195 36Z" fill="#FFE300"/>
<path d="M88.2012 29.1609V3.96094H101.665C105.145 3.96094 107.713 4.58494 109.369 5.83294C111.025 7.05694 111.853 8.62894 111.853 10.5489C111.853 11.8209 111.493 12.9609 110.773 13.9689C110.077 14.9529 109.057 15.7329 107.713 16.3089C106.369 16.8849 104.713 17.1729 102.745 17.1729L103.465 15.2289C105.433 15.2289 107.125 15.5049 108.541 16.0569C109.981 16.6089 111.085 17.4129 111.853 18.4689C112.645 19.5009 113.041 20.7489 113.041 22.2129C113.041 24.3969 112.129 26.1009 110.305 27.3249C108.505 28.5489 105.865 29.1609 102.385 29.1609H88.2012ZM96.5532 23.2209H101.665C102.601 23.2209 103.297 23.0529 103.753 22.7169C104.233 22.3809 104.473 21.8889 104.473 21.2409C104.473 20.5929 104.233 20.1009 103.753 19.7649C103.297 19.4289 102.601 19.2609 101.665 19.2609H95.9772V13.6449H100.513C101.473 13.6449 102.169 13.4889 102.601 13.1769C103.057 12.8409 103.285 12.3729 103.285 11.7729C103.285 11.1489 103.057 10.6809 102.601 10.3689C102.169 10.0569 101.473 9.90094 100.513 9.90094H96.5532V23.2209Z" fill="#FFE300"/>
<path d="M59.2676 29.1609V3.96094H66.2516L79.0676 19.2969H75.8276V3.96094H84.1076V29.1609H77.1236L64.3076 13.8249H67.5476V29.1609H59.2676Z" fill="#FFE300"/>
<path d="M44.6678 29.7368C42.6278 29.7368 40.7438 29.4248 39.0158 28.8008C37.3118 28.1528 35.8238 27.2408 34.5518 26.0648C33.3038 24.8888 32.3318 23.4968 31.6358 21.8888C30.9398 20.2808 30.5918 18.5048 30.5918 16.5608C30.5918 14.6168 30.9398 12.8408 31.6358 11.2328C32.3318 9.62477 33.3158 8.23277 34.5878 7.05677C35.8598 5.88077 37.3598 4.98077 39.0878 4.35677C40.8398 3.70877 42.7598 3.38477 44.8478 3.38477C47.3438 3.38477 49.5638 3.80477 51.5078 4.64476C53.4758 5.48476 55.0958 6.68477 56.3678 8.24477L50.9318 13.0328C50.1398 12.1208 49.2758 11.4368 48.3398 10.9808C47.4278 10.5008 46.4078 10.2608 45.2798 10.2608C44.3438 10.2608 43.4918 10.4048 42.7238 10.6928C41.9798 10.9808 41.3438 11.4008 40.8158 11.9528C40.2878 12.5048 39.8798 13.1648 39.5918 13.9328C39.3038 14.7008 39.1598 15.5768 39.1598 16.5608C39.1598 17.4968 39.3038 18.3608 39.5918 19.1528C39.8798 19.9208 40.2878 20.5808 40.8158 21.1328C41.3438 21.6848 41.9678 22.1168 42.6878 22.4288C43.4318 22.7168 44.2598 22.8608 45.1718 22.8608C46.1318 22.8608 47.0678 22.7048 47.9798 22.3928C48.8918 22.0568 49.8638 21.4928 50.8958 20.7008L55.6478 26.5328C54.1118 27.5648 52.3598 28.3568 50.3918 28.9088C48.4238 29.4608 46.5158 29.7368 44.6678 29.7368ZM48.2678 25.4528V15.8768H55.6478V26.5328L48.2678 25.4528Z" fill="#FFE300"/>
<path d="M12.1326 29.1609L1.47656 3.96094H10.6206L19.2966 25.2369H13.8606L22.7886 3.96094H31.1406L20.4846 29.1609H12.1326Z" fill="#FFE300"/>
<path d="M12.2962 25L1.51953 0H10.7671L19.5414 21.1071H14.0438L23.0729 0H31.5195L20.7428 25H12.2962Z" fill="#FFE300"/>
<path d="M29.4609 9.0957L-0.00113777 16.99L0.537082 18.9987L29.9992 11.1044L29.4609 9.0957Z" fill="#3B3A39"/>
<path d="M29.4609 17.2793L-0.00113777 25.1736L0.397185 26.6602L29.8593 18.7659L29.4609 17.2793Z" fill="#3B3A39"/>
<path d="M29.4609 24.1191L-0.00113777 32.0135L0.30401 33.1523L29.7661 25.258L29.4609 24.1191Z" fill="#3B3A39"/>
</svg>
