<svg width="519" height="123" fill="none" xmlns="http://www.w3.org/2000/svg"><path d="M403.15 120.266V3.366h62.458c16.144 0 28.056 2.894 35.738 8.684 7.682 5.678 11.523 12.97 11.523 21.877 0 5.9-1.67 11.189-5.01 15.865-3.228 4.564-7.96 8.183-14.195 10.855-6.234 2.672-13.916 4.008-23.046 4.008l3.34-9.018c9.13 0 16.979 1.28 23.547 3.84 6.68 2.561 11.802 6.291 15.364 11.19 3.674 4.787 5.511 10.576 5.511 17.368 0 10.131-4.23 18.036-12.692 23.714-8.35 5.678-20.596 8.517-36.74 8.517H403.15zm38.744-27.555h23.714c4.342 0 7.571-.78 9.686-2.338 2.227-1.559 3.34-3.841 3.34-6.847 0-3.006-1.113-5.289-3.34-6.847-2.115-1.559-5.344-2.338-9.686-2.338h-26.386V48.289h21.042c4.454 0 7.682-.724 9.686-2.171 2.116-1.559 3.173-3.73 3.173-6.513 0-2.895-1.057-5.066-3.173-6.513-2.004-1.448-5.232-2.171-9.686-2.171h-18.37v61.79z" fill="url(#paint0_linear_988_788)"/><path d="M268.93 120.266V3.366h32.398l59.452 71.142h-15.03V3.366h38.41v116.9h-32.398L292.31 49.124h15.03v71.142h-38.41z" fill="url(#paint1_linear_988_788)"/><path d="M201.203 122.938c-9.463 0-18.203-1.447-26.219-4.342-7.904-3.006-14.807-7.237-20.708-12.692-5.789-5.455-10.298-11.913-13.527-19.372-3.228-7.46-4.843-15.698-4.843-24.716s1.615-17.257 4.843-24.716c3.229-7.46 7.794-13.917 13.694-19.372 5.901-5.456 12.859-9.63 20.875-12.525 8.128-3.006 17.034-4.51 26.72-4.51 11.579 0 21.877 1.95 30.895 5.846 9.13 3.896 16.645 9.463 22.545 16.7l-25.217 22.21c-3.674-4.23-7.682-7.403-12.024-9.518-4.23-2.227-8.962-3.34-14.195-3.34-4.342 0-8.294.668-11.857 2.004-3.451 1.336-6.401 3.284-8.851 5.845-2.449 2.56-4.342 5.622-5.678 9.185-1.336 3.563-2.004 7.626-2.004 12.19 0 4.343.668 8.35 2.004 12.025 1.336 3.563 3.229 6.624 5.678 9.185 2.45 2.56 5.344 4.564 8.684 6.012 3.452 1.336 7.293 2.004 11.523 2.004 4.454 0 8.796-.724 13.026-2.171 4.231-1.559 8.74-4.175 13.527-7.85l22.044 27.055c-7.125 4.787-15.252 8.461-24.382 11.022-9.129 2.561-17.98 3.841-26.553 3.841zm16.7-19.873V58.643h34.235v49.432l-34.235-5.01z" fill="url(#paint2_linear_988_788)"/><path d="M50.278 120.266L.846 3.366h42.418l40.247 98.697H58.294L99.71 3.366h38.744l-49.432 116.9H50.278z" fill="url(#paint3_linear_988_788)"/><defs><linearGradient id="paint0_linear_988_788" x1="460.765" y1="3.366" x2="460.765" y2="120.266" gradientUnits="userSpaceOnUse"><stop stop-color="#5F8FB3"/><stop offset="1" stop-color="#fff"/></linearGradient><linearGradient id="paint1_linear_988_788" x1="326.545" y1="3.366" x2="326.545" y2="120.266" gradientUnits="userSpaceOnUse"><stop stop-color="#5F8FB3"/><stop offset="1" stop-color="#fff"/></linearGradient><linearGradient id="paint2_linear_988_788" x1="195.692" y1=".694" x2="195.692" y2="122.938" gradientUnits="userSpaceOnUse"><stop stop-color="#5F8FB3"/><stop offset="1" stop-color="#fff"/></linearGradient><linearGradient id="paint3_linear_988_788" x1="69.65" y1="3.366" x2="69.65" y2="120.266" gradientUnits="userSpaceOnUse"><stop stop-color="#5F8FB3"/><stop offset="1" stop-color="#fff"/></linearGradient></defs></svg>