<svg width="65" height="64" fill="none" xmlns="http://www.w3.org/2000/svg"><g clip-path="url(#clip0_988_603)" fill="#FFE300"><path d="M28.766 19.85a1.557 1.557 0 00-2.51 0L17.98 31.142a1.557 1.557 0 001.256 2.476h3.402v26.228c0 .86.697 1.557 1.556 1.557h6.633c.86 0 1.556-.697 1.556-1.557V33.618h3.402a1.557 1.557 0 001.256-2.476L28.766 19.85z"/><path d="M11.336 29.084a1.557 1.557 0 00-2.51 0L.55 40.376a1.556 1.556 0 001.255 2.477h3.402v16.993c0 .86.697 1.557 1.557 1.557h6.632c.86 0 1.557-.697 1.557-1.557V42.853h3.402a1.556 1.556 0 001.255-2.477l-8.275-11.292zM52.55 16.317a6.871 6.871 0 006.864-6.863 6.871 6.871 0 00-6.863-6.863 6.871 6.871 0 00-6.864 6.863 6.871 6.871 0 006.864 6.863zm7.538 3.325l-.011-.003-1.959-.601a.608.608 0 00-.75.373l-4.12 11.302c-.237.652-1.159.652-1.397 0L47.732 19.41a.608.608 0 00-.57-.4c-.06 0-2.136.627-2.136.627a6.08 6.08 0 00-4.175 5.777V37.37c0 .119.035.235.1.334l4.298 6.54v16.55c0 .336.273.608.609.608h13.385a.608.608 0 00.608-.608v-16.55l4.298-6.54a.609.609 0 00.1-.334V25.383a6.041 6.041 0 00-4.16-5.74z"/><path d="M54.34 18.54a1.009 1.009 0 00-.745-.31h-2.088c-.28 0-.557.103-.746.31a.969.969 0 00-.128 1.14l1.116 1.683-.522 4.408 1.029 2.737c.1.275.49.275.59 0l1.029-2.737-.523-4.408 1.117-1.683a.968.968 0 00-.128-1.14z"/></g><defs><clipPath id="clip0_988_603"><path fill="#fff" transform="translate(.25 -.003)" d="M0 0h64v64H0z"/></clipPath></defs></svg>